<svg width="62" height="62" viewBox="0 0 62 62" fill="none" xmlns="http://www.w3.org/2000/svg">
<path fill-rule="evenodd" clip-rule="evenodd" d="M10.0199 4.85325C11.4733 3.39984 13.4446 2.58333 15.5 2.58333H36.1667C36.8518 2.58333 37.5089 2.8555 37.9934 3.33997L53.4934 18.84C53.9778 19.3244 54.25 19.9815 54.25 20.6667V51.6667C54.25 53.7221 53.4335 55.6933 51.9801 57.1467C50.5267 58.6002 48.5554 59.4167 46.5 59.4167H15.5C13.4446 59.4167 11.4733 58.6002 10.0199 57.1467C8.56652 55.6933 7.75 53.7221 7.75 51.6667V10.3333C7.75 8.2779 8.56651 6.30666 10.0199 4.85325ZM15.5 7.75C14.8149 7.75 14.1578 8.02217 13.6733 8.50664C13.1888 8.9911 12.9167 9.64819 12.9167 10.3333V51.6667C12.9167 52.3518 13.1888 53.0089 13.6733 53.4934C14.1578 53.9778 14.8149 54.25 15.5 54.25H46.5C47.1851 54.25 47.8422 53.9778 48.3267 53.4934C48.8112 53.0089 49.0833 52.3518 49.0833 51.6667V21.7367L35.0966 7.75H15.5Z" fill="#F0F7F4"/>
<path fill-rule="evenodd" clip-rule="evenodd" d="M36.1667 2.58333C37.5934 2.58333 38.75 3.73993 38.75 5.16666V18.0833H51.6667C53.0934 18.0833 54.25 19.2399 54.25 20.6667C54.25 22.0934 53.0934 23.25 51.6667 23.25H36.1667C34.7399 23.25 33.5833 22.0934 33.5833 20.6667V5.16666C33.5833 3.73993 34.7399 2.58333 36.1667 2.58333Z" fill="#F0F7F4"/>
<path fill-rule="evenodd" clip-rule="evenodd" d="M18.0833 33.5833C18.0833 32.1566 19.2399 31 20.6667 31H41.3333C42.7601 31 43.9167 32.1566 43.9167 33.5833C43.9167 35.0101 42.7601 36.1667 41.3333 36.1667H20.6667C19.2399 36.1667 18.0833 35.0101 18.0833 33.5833Z" fill="#F0F7F4"/>
<path fill-rule="evenodd" clip-rule="evenodd" d="M18.0833 43.9167C18.0833 42.4899 19.2399 41.3333 20.6667 41.3333H41.3333C42.7601 41.3333 43.9167 42.4899 43.9167 43.9167C43.9167 45.3434 42.7601 46.5 41.3333 46.5H20.6667C19.2399 46.5 18.0833 45.3434 18.0833 43.9167Z" fill="#F0F7F4"/>
<path fill-rule="evenodd" clip-rule="evenodd" d="M18.0833 23.25C18.0833 21.8233 19.2399 20.6667 20.6667 20.6667H25.8333C27.2601 20.6667 28.4167 21.8233 28.4167 23.25C28.4167 24.6767 27.2601 25.8333 25.8333 25.8333H20.6667C19.2399 25.8333 18.0833 24.6767 18.0833 23.25Z" fill="#F0F7F4"/>
</svg>
