<svg width="40" height="41" viewBox="0 0 40 41" fill="none" xmlns="http://www.w3.org/2000/svg">
<path fill-rule="evenodd" clip-rule="evenodd" d="M15.2978 3.33822C18.9375 2.4742 22.7292 2.4742 26.3688 3.33822C28.4636 2.0126 30.0789 1.39364 31.27 1.1292C31.9255 0.98369 32.4503 0.946126 32.8508 0.95715C33.0506 0.962649 33.2176 0.980194 33.3524 1.0017C33.4198 1.01244 33.4788 1.02412 33.5297 1.03568C33.5551 1.04146 33.5784 1.04721 33.5997 1.05278L33.63 1.06098L33.644 1.06495L33.6507 1.0669L33.654 1.06786C33.6557 1.06834 33.6573 1.06881 33.1833 2.66668L33.6573 1.06881C34.1323 1.20972 34.52 1.55467 34.7152 2.01009C35.606 4.0885 35.7712 6.39577 35.2018 8.56438C36.6841 10.4481 37.4995 12.7833 37.5 15.1997V15.2C37.5 20.1104 35.9979 23.4039 33.5018 25.5027C31.8246 26.913 29.821 27.6755 27.8454 28.1109C27.8711 28.1763 27.8959 28.2421 27.9197 28.3082C28.2622 29.259 28.4029 30.2703 28.3333 31.2779V37.6667C28.3333 38.5871 27.5871 39.3333 26.6667 39.3333C25.7462 39.3333 25 38.5871 25 37.6667V31.2167C25 31.1731 25.0017 31.1294 25.0051 31.086C25.0491 30.5271 24.9736 29.9652 24.7836 29.4377C24.5936 28.9103 24.2936 28.4293 23.9033 28.0268C23.4607 27.5702 23.3165 26.9015 23.5315 26.3031C23.7465 25.7046 24.2834 25.2807 24.9154 25.2103C27.4384 24.929 29.7132 24.3332 31.3565 22.9515C32.9188 21.6378 34.1666 19.3897 34.1667 15.2003M32.005 4.38055C32.0008 4.38146 31.9966 4.38238 31.9924 4.38331C31.1796 4.56378 29.7406 5.07928 27.5947 6.51775C27.1939 6.7864 26.6964 6.86819 26.2307 6.74198C22.6962 5.78406 18.9704 5.78406 15.436 6.74198C14.9703 6.86819 14.4728 6.7864 14.072 6.51775C11.9261 5.07928 10.4871 4.56378 9.67419 4.38331C9.67001 4.38238 9.66584 4.38146 9.66169 4.38055C9.33961 5.69447 9.41586 7.08395 9.89479 8.36727C10.1178 8.96485 9.98021 9.63729 9.54041 10.0992C8.22109 11.485 7.48979 13.3278 7.49996 15.2411L7.50001 15.25C7.49999 19.4009 8.74455 21.635 10.3101 22.9515C11.9593 24.3382 14.2407 24.9483 16.7721 25.2627C17.3991 25.3406 17.9282 25.7664 18.1384 26.3623C18.3486 26.9581 18.2037 27.6216 17.7643 28.0757C17.3787 28.4742 17.0813 28.9494 16.8915 29.4704C16.7016 29.9914 16.6236 30.5466 16.6625 31.0997C16.6653 31.1387 16.6667 31.1777 16.6667 31.2167V32.6292C16.6672 32.6547 16.6672 32.6801 16.6667 32.7054V37.6667C16.6667 38.5871 15.9205 39.3333 15 39.3333C14.0795 39.3333 13.3333 38.5871 13.3333 37.6667V34.7572C11.9897 34.9628 10.8073 34.9275 9.75039 34.6801C8.14243 34.3038 6.99403 33.4761 6.11314 32.5952C5.68207 32.1641 5.3107 31.7159 4.98979 31.3139C4.88076 31.1773 4.78111 31.0508 4.68696 30.9313C4.48624 30.6764 4.31047 30.4532 4.12187 30.2318C3.57513 29.59 3.23598 29.3603 2.92909 29.2836C2.0361 29.0603 1.49317 28.1554 1.71642 27.2624C1.93966 26.3695 2.84456 25.8265 3.73755 26.0498C5.09733 26.3897 6.00818 27.3059 6.65935 28.0703C6.89124 28.3425 7.13074 28.6465 7.35011 28.9249C7.43525 29.033 7.51736 29.1372 7.59482 29.2343C7.8924 29.607 8.17207 29.9401 8.47017 30.2382C9.04761 30.8156 9.67004 31.2379 10.51 31.4345C11.177 31.5906 12.0804 31.6272 13.3333 31.3721V31.2714C13.2716 30.2721 13.4166 29.2705 13.7595 28.3293C13.7829 28.2651 13.8072 28.2013 13.8324 28.1378C11.8539 27.6866 9.845 26.9155 8.16486 25.5027C5.67283 23.4073 4.16754 20.1344 4.16665 15.2543M8.48332 2.66668C8.00938 1.06881 8.01099 1.06834 8.01261 1.06786L8.01589 1.0669L8.0226 1.06495L8.03661 1.06098L8.06695 1.05278C8.08823 1.04721 8.11157 1.04146 8.13698 1.03568C8.18784 1.02412 8.24689 1.01244 8.31423 1.0017C8.44908 0.980194 8.61605 0.962649 8.81585 0.95715C9.21636 0.946126 9.74116 0.98369 10.3966 1.1292C11.5877 1.39364 13.203 2.0126 15.2978 3.33822M8.48332 2.66668L8.00938 1.06881C7.53434 1.20972 7.14663 1.55467 6.95143 2.01009C6.06061 4.0885 5.8955 6.39575 6.46486 8.56435M32.005 4.38055C32.327 5.69447 32.2508 7.08395 31.7718 8.36727C31.5488 8.96483 31.6864 9.63726 32.1262 10.0992C33.4357 11.4747 34.1662 13.3009 34.1667 15.2" fill="black"/>
</svg>
